<svg width="288" height="49" viewBox="0 0 288 49" fill="none" xmlns="http://www.w3.org/2000/svg">
<path d="M7.16752 27.508C9.04104 29.506 11.0534 31.4736 13.2078 33.4077C15.3622 35.3434 17.499 37.0126 19.6215 38.4185C21.744 39.8228 23.5856 40.5249 25.1463 40.5249C26.1453 40.5249 26.956 40.1499 27.5816 39.4015C28.4561 38.4041 28.6891 37.4036 28.2838 36.4046C27.8768 35.4056 27.0342 34.4067 25.7543 33.4077C24.4745 32.4103 22.8818 31.3794 20.978 30.3182C19.0725 29.257 17.0761 28.1496 14.984 26.9942C12.8918 25.8404 10.8316 24.5925 8.80326 23.2489C6.77335 21.9068 4.97802 20.4865 3.41888 18.9881C2.10709 17.6157 1.27885 15.8986 0.937337 13.8385C0.592634 11.7783 0.889461 9.7644 1.82622 7.79838C2.76298 5.83236 4.35564 4.13124 6.60259 2.69503C8.85273 1.25562 11.8801 0.537511 15.6893 0.537511C18.498 0.475275 21.4025 0.443359 24.3995 0.443359H41.1622C41.1622 0.507191 41.2085 0.818371 41.3027 1.38009C41.3952 1.94181 41.3489 2.66151 41.1622 3.53441C40.8494 5.03287 40.2877 6.501 39.477 7.93562C38.6647 9.37183 37.6514 10.6373 36.4337 11.7288C35.2161 12.8219 33.7958 13.6948 32.1728 14.3507C30.5483 15.0066 28.7689 15.3337 26.8347 15.3337C24.7122 15.3337 22.4637 14.8662 20.0923 13.9294C18.0943 13.1188 16.3931 12.557 14.9888 12.2443C13.5844 11.9331 12.445 11.7767 11.5705 11.7767C10.6337 11.7767 9.94589 11.9171 9.51022 12.198C9.07296 12.4788 8.85433 12.8395 8.85433 13.2751C8.85433 13.7108 9.07296 14.1656 9.51022 14.6332C9.94589 15.1007 10.5411 15.5236 11.2896 15.897C13.037 16.7093 15.2233 17.3173 17.8453 17.7226C20.4673 18.1296 23.1196 18.5508 25.8054 18.9865C28.488 19.4237 31.0174 19.9855 33.3905 20.6717C35.7635 21.3594 37.5413 22.3887 38.7286 23.7611C39.5393 24.6978 40.101 25.8532 40.4138 27.2256C40.725 28.5996 40.8351 30.0198 40.7409 31.4864C40.6484 32.9529 40.4138 34.421 40.0388 35.8876C39.6637 37.3557 39.2265 38.7137 38.727 39.9616C37.6641 42.7702 35.9486 44.8783 33.5756 46.2826C31.2026 47.6869 28.5503 48.389 25.6155 48.389C23.9303 48.3284 22.0711 48.2183 20.0444 48.0619C18.0145 47.9071 15.9383 47.7044 13.8174 47.4539C11.4444 47.2672 9.22935 46.5491 7.16752 45.2996C5.10728 44.0516 3.45239 42.4287 2.20444 40.4292C0.954891 38.369 0.238356 36.1541 0.0500463 33.7811C-0.138264 31.4082 0.204843 29.0991 1.07937 26.8506C1.32832 26.1644 1.59483 25.4782 1.87569 24.7904C2.15656 24.1042 2.45179 23.418 2.76458 22.7302C3.82582 23.9159 5.294 25.5085 7.16592 27.5064L7.16752 27.508Z" fill="#FAEACD"/>
<path d="M55.7706 46.5158C53.2731 45.2679 51.0884 43.5508 49.2149 41.3646C47.3413 39.1799 45.8588 36.6203 44.7672 33.6856C43.6741 30.7525 43.1283 27.6311 43.1283 24.3215C43.1283 21.0118 43.6741 17.892 44.7672 14.9573C45.8588 12.0243 47.3429 9.46462 49.2149 7.27838C51.0884 5.09374 53.2715 3.3607 55.7706 2.08087C58.2665 0.802642 60.9204 0.161133 63.7307 0.161133C66.541 0.161133 69.1932 0.802642 71.6907 2.08087C74.1882 3.3607 76.373 5.09374 78.2465 7.27838C80.12 9.46462 81.6025 12.0243 82.6941 14.9573C83.7857 17.892 84.333 21.0134 84.333 24.3215C84.333 27.6296 83.7857 30.7525 82.6941 33.6856C81.6009 36.6203 80.1184 39.1799 78.2465 41.3646C76.373 43.5508 74.1882 45.2679 71.6907 46.5158C69.1932 47.7653 66.541 48.3892 63.7307 48.3892C60.9204 48.3892 58.2665 47.7653 55.7706 46.5158ZM58.2043 6.24749C57.6425 7.43477 57.2515 8.9795 57.0345 10.8833C56.8143 12.7887 56.7536 14.9893 56.8478 17.4851C56.9403 19.9825 57.2372 22.606 57.7367 25.3524C57.925 26.3513 58.2521 27.8961 58.7197 29.9881C59.1873 32.0802 59.8272 34.1867 60.6395 36.3091C61.4502 38.4331 62.4029 40.289 63.4961 41.8816C64.5876 43.4726 65.8212 44.2689 67.1952 44.2689C68.0059 44.1444 68.6937 43.4886 69.2555 42.3029C69.8172 41.1188 70.2066 39.5725 70.4252 37.6671C70.6439 35.7633 70.7205 33.5787 70.6598 31.1116C70.596 28.6461 70.3151 26.0401 69.8172 23.2922C69.6305 22.2948 69.2858 20.7501 68.7863 18.6564C68.2868 16.5659 67.6469 14.4595 66.8665 12.3355C66.0845 10.213 65.135 8.34118 64.0099 6.71666C62.8865 5.09374 61.6369 4.28148 60.2645 4.28148C59.4522 4.40754 58.766 5.06342 58.2043 6.24749Z" fill="#FAEACD"/>
<path d="M104.466 39.5366C105.903 39.0068 107.431 38.4451 109.054 37.8514C110.677 37.2594 112.268 36.728 113.831 36.2604C115.39 35.7929 116.641 35.5583 117.578 35.5583C117.702 35.5583 117.827 35.5742 117.953 35.6062C118.077 35.6381 118.202 35.6524 118.328 35.6524C119.576 36.0274 120.543 36.6354 121.231 37.478C121.917 38.3206 122.292 39.2095 122.354 40.1462C122.479 42.8941 122.509 44.908 122.448 46.1863C122.384 47.4661 122.354 48.2002 122.354 48.3869L86.2991 48.2002L86.205 1.18964C86.3295 1.18964 86.955 1.15932 88.0785 1.09708C89.202 1.03485 90.576 1.00293 92.199 1.00293H94.1188C94.7747 1.00293 95.4433 1.03485 96.1327 1.09708C97.0073 1.15932 97.802 1.53433 98.5201 2.22052C99.2367 2.90831 99.816 3.87536 100.253 5.12327C100.753 6.37278 101.034 7.65101 101.096 8.96276C101.158 10.2729 101.034 11.8655 100.721 13.739C100.595 15.2374 100.268 16.9705 99.7378 18.9365C99.2063 20.9025 98.6143 22.8861 97.9584 24.8824C97.3025 26.8803 96.6945 28.848 96.1327 30.7821C95.571 32.7178 95.2423 34.4348 95.1497 35.9333C95.0571 37.4317 95.2742 38.6334 95.8056 39.5382C96.3354 40.4446 97.3504 40.8962 98.8489 40.8962C99.5973 40.8962 100.378 40.8037 101.19 40.6154C101.94 40.4286 103.03 40.0696 104.468 39.5382L104.466 39.5366Z" fill="#FAEACD"/>
<path d="M159.062 48.1083C152.63 48.1722 146.887 48.2025 141.831 48.2025C139.707 48.2025 137.601 48.2185 135.51 48.2488C133.418 48.2807 131.562 48.311 129.939 48.3429C128.315 48.3748 127.004 48.3892 126.005 48.3892H124.414L124.508 0.443544L160.563 0.256836C160.563 0.319072 160.578 0.663764 160.61 1.28772C160.64 1.91168 160.658 2.72393 160.658 3.7229V7.09482C160.658 8.34433 160.624 9.62256 160.563 10.9343C160.501 11.871 160.172 12.6833 159.58 13.3695C158.987 14.0573 158.238 14.619 157.333 15.0546C156.427 15.4919 155.492 15.8206 154.525 16.0377C153.556 16.2563 152.666 16.3648 151.855 16.3648C151.293 16.3648 150.699 16.3345 150.075 16.2706C149.452 16.21 148.765 16.1158 148.015 15.9898C147.016 15.8015 146.236 15.6148 145.674 15.4281C145.112 15.2414 144.597 15.053 144.129 14.8663C143.662 14.6796 143.193 14.4913 142.725 14.3046C142.256 14.1163 141.616 13.9296 140.805 13.7429C140.181 13.6184 139.712 13.5562 139.401 13.5562C138.713 13.5562 138.183 13.7429 137.808 14.1179C137.495 14.4307 137.387 14.8201 137.481 15.2892C137.575 15.7568 137.808 16.1797 138.183 16.5531C139.618 18.1138 141.522 19.1925 143.896 19.7846C146.269 20.3782 148.828 20.675 151.576 20.675C152.824 20.675 154.089 20.6144 155.369 20.4883C156.647 20.3639 157.913 20.2394 159.162 20.1133C159.162 22.1112 159.193 24.015 159.255 25.8263V33.9728C159.255 34.8473 158.818 35.3468 157.945 35.4712C156.821 35.658 155.696 35.7521 154.573 35.7521C152.262 35.7521 150.202 35.3627 148.392 34.5808C146.581 33.8004 145.021 32.8174 143.71 31.6318C142.398 30.4461 141.305 29.1663 140.432 27.7923C139.557 26.4199 138.839 25.1385 138.277 23.9528C138.089 23.5778 137.808 23.423 137.435 23.4852C136.998 23.6097 136.779 23.8602 136.779 24.2337V27.2306C136.84 30.103 137.84 32.5845 139.776 34.6749C141.71 36.767 144.145 37.9383 147.08 38.1857C148.639 38.3118 150.419 38.4362 152.418 38.5607C154.416 38.6868 156.663 38.8416 159.161 39.0283L159.066 48.1115L159.062 48.1083Z" fill="#FAEACD"/>
<path d="M162.62 48.3892V0.161133C164.618 0.161133 166.414 0.381353 168.005 0.817005C169.597 1.25425 171.11 2.2213 172.547 3.71976C173.608 4.8432 174.434 6.13898 175.028 7.60552C175.62 9.07365 175.855 10.5865 175.73 12.1471C175.666 14.8951 175.62 17.9064 175.59 21.1841C175.558 24.4619 175.604 27.7237 175.73 30.9696C175.855 34.217 176.105 37.3543 176.48 40.3815C176.855 43.4104 177.353 46.0466 177.979 48.2935L162.62 48.3877V48.3892Z" fill="#FAEACD"/>
<path d="M193.43 30.3168C193.304 36.4973 193.929 42.5231 195.303 48.3908C192.495 48.3908 189.965 48.3605 187.717 48.2966H179.851C179.851 45.3636 179.865 42.1321 179.897 38.6038C179.929 35.0771 180.038 31.5344 180.226 27.9758C180.413 24.4172 180.725 20.9687 181.163 17.6271C181.598 14.2887 182.24 11.338 183.082 8.77838C183.925 6.21873 185.002 4.15855 186.314 2.59787C187.626 1.03878 189.217 0.256836 191.09 0.256836H202.423L217.5 48.2966H215.861C214.83 48.2966 213.613 48.3126 212.208 48.3445C210.804 48.3764 209.32 48.3908 207.761 48.3908H203.548C202.673 48.3908 201.862 48.0333 201.112 47.3136C200.362 46.5971 199.738 45.6141 199.239 44.3646C198.738 43.0529 198.411 41.7108 198.256 40.3368C198.099 38.9644 198.115 37.2793 198.302 35.2798C198.364 34.7803 198.427 34.0957 198.49 33.2196C198.551 32.3451 198.645 31.3796 198.771 30.3168H193.433H193.43ZM199.049 27.8816C199.237 26.447 199.424 24.9486 199.611 23.3863C199.797 21.8272 199.968 20.3591 200.126 18.9851C200.281 17.6127 200.437 16.3792 200.594 15.286C200.748 14.1945 200.859 13.3663 200.922 12.8046C201.109 11.2455 200.922 10.1827 200.361 9.62096C200.11 9.43425 199.861 9.3401 199.611 9.3401C199.049 9.3401 198.58 9.62096 198.206 10.1827C196.768 12.7423 195.677 15.5206 194.928 18.5175C194.18 21.5144 193.712 24.6374 193.524 27.8816H199.049Z" fill="#FAEACD"/>
</svg>
