<?xml version="1.0" encoding="UTF-8"?>
<svg width="297" height="66" viewBox="0 0 297 66" fill="none" xmlns="http://www.w3.org/2000/svg" shape-rendering="geometricPrecision" text-rendering="geometricPrecision" image-rendering="optimizeQuality">
<path d="M9.78737 37.342C12.3457 40.0703 15.0936 42.7572 18.0355 45.3983C20.9773 48.0417 23.8952 50.321 26.7935 52.2409C29.6918 54.1585 32.2065 55.1174 34.3377 55.1174C35.7019 55.1174 36.8089 54.6053 37.6631 53.5832C38.8573 52.2213 39.1755 50.8549 38.6219 49.4908C38.0663 48.1266 36.9157 46.7625 35.168 45.3983C33.4203 44.0364 31.2455 42.6286 28.6458 41.1795C26.0439 39.7304 23.3177 38.218 20.4609 36.6403C17.604 35.0648 14.7907 33.3607 12.021 31.5258C9.24912 29.6932 6.79757 27.7537 4.66853 25.7075C2.87727 23.8334 1.74629 21.4886 1.27995 18.6754C0.809252 15.8621 1.21457 13.112 2.49374 10.4273C3.7729 7.74254 5.9477 5.41956 9.01595 3.45832C12.0886 1.49273 16.2224 0.512107 21.4241 0.512107C25.2594 0.42712 29.2254 0.383537 33.3179 0.383537H56.2077C56.2077 0.470703 56.2709 0.895639 56.3995 1.6627C56.5259 2.42976 56.4627 3.41256 56.2077 4.60456C55.7806 6.65079 55.0135 8.65561 53.9065 10.6147C52.7973 12.5759 51.4136 14.304 49.7509 15.7945C48.0882 17.2872 46.1488 18.4792 43.9325 19.3749C41.7142 20.2705 39.2844 20.7172 36.6433 20.7172C33.745 20.7172 30.6746 20.0787 27.4363 18.7996C24.708 17.6926 22.3851 16.9255 20.4674 16.4984C18.5498 16.0735 16.9938 15.8599 15.7997 15.8599C14.5205 15.8599 13.5813 16.0517 12.9864 16.4352C12.3893 16.8187 12.0907 17.3112 12.0907 17.9061C12.0907 18.501 12.3893 19.1221 12.9864 19.7606C13.5813 20.3991 14.3941 20.9765 15.4161 21.4865C17.8023 22.5957 20.7877 23.4259 24.3681 23.9794C27.9484 24.5351 31.5702 25.1104 35.2377 25.7053C38.9009 26.3024 42.3548 27.0695 45.5952 28.0065C48.8356 28.9457 51.2632 30.3513 52.8845 32.2253C53.9915 33.5045 54.7586 35.0822 55.1857 36.9563C55.6106 38.8325 55.761 40.772 55.6324 42.7746C55.506 44.7773 55.1857 46.7821 54.6736 48.7847C54.1615 50.7896 53.5644 52.644 52.8823 54.3481C51.431 58.1834 49.0884 61.0621 45.848 62.9798C42.6076 64.8974 38.9859 65.8562 34.9784 65.8562C32.6772 65.7734 30.1385 65.6231 27.371 65.4095C24.5991 65.1981 21.764 64.9214 18.8679 64.5793C15.6275 64.3243 12.6028 63.3437 9.78737 61.6374C6.97408 59.9333 4.7143 57.7171 3.0102 54.9866C1.30392 52.1733 0.325479 49.1487 0.0683391 45.9083C-0.188801 42.6679 0.279717 39.5146 1.47389 36.4442C1.81384 35.5072 2.17776 34.5701 2.56129 33.6309C2.94482 32.6939 3.34797 31.7568 3.77508 30.8176C5.22422 32.4367 7.22904 34.6115 9.78519 37.3398L9.78737 37.342Z" fill="#163527"/>
<path d="M76.1557 63.3001C72.7453 61.596 69.7621 59.2512 67.2037 56.2658C64.6454 53.2825 62.621 49.7872 61.1304 45.7797C59.6377 41.7744 58.8924 37.512 58.8924 32.9924C58.8924 28.4728 59.6377 24.2126 61.1304 20.2051C62.621 16.1998 64.6476 12.7045 67.2037 9.71903C69.7621 6.73577 72.7432 4.36921 76.1557 2.62152C79.5639 0.87602 83.1878 0 87.0253 0C90.8628 0 94.4846 0.87602 97.895 2.62152C101.305 4.36921 104.289 6.73577 106.847 9.71903C109.405 12.7045 111.43 16.1998 112.92 20.2051C114.411 24.2126 115.158 28.475 115.158 32.9924C115.158 37.5098 114.411 41.7744 112.92 45.7797C111.428 49.7872 109.403 53.2825 106.847 56.2658C104.289 59.2512 101.305 61.596 97.895 63.3001C94.4846 65.0064 90.8628 65.8584 87.0253 65.8584C83.1878 65.8584 79.5639 65.0064 76.1557 63.3001ZM79.4789 8.3113C78.7119 9.93259 78.178 12.042 77.8816 14.6417C77.5809 17.2437 77.4981 20.2487 77.6266 23.6569C77.753 27.0673 78.1584 30.6498 78.8404 34.4001C79.0976 35.7643 79.5443 37.8737 80.1828 40.7306C80.8213 43.5875 81.6951 46.4639 82.8043 49.3622C83.9113 52.2627 85.2123 54.797 86.705 56.9718C88.1955 59.1444 89.88 60.2318 91.7563 60.2318C92.8633 60.0619 93.8025 59.1662 94.5696 57.5471C95.3366 55.9302 95.8683 53.8186 96.1669 51.2167C96.4654 48.6169 96.57 45.6337 96.4872 42.2647C96.4001 38.8979 96.0165 35.3394 95.3366 31.5868C95.0817 30.2249 94.611 28.1155 93.9289 25.2564C93.2468 22.4017 92.373 19.5252 91.3074 16.6248C90.2396 13.7265 88.943 11.1703 87.4067 8.95197C85.8726 6.73577 84.1663 5.62658 82.2922 5.62658C81.183 5.79873 80.246 6.69436 79.4789 8.3113Z" fill="#163527"/>
<path d="M142.65 53.7728C144.612 53.0494 146.699 52.2823 148.916 51.4716C151.132 50.6632 153.304 49.9375 155.438 49.299C157.567 48.6605 159.275 48.3402 160.554 48.3402C160.724 48.3402 160.894 48.362 161.066 48.4056C161.236 48.4492 161.406 48.4688 161.579 48.4688C163.283 48.9809 164.603 49.8111 165.542 50.9617C166.479 52.1123 166.992 53.3261 167.077 54.6053C167.247 58.3578 167.288 61.1079 167.205 62.8534C167.118 64.601 167.077 65.6035 167.077 65.8584L117.843 65.6035L117.714 1.40773C117.884 1.40773 118.739 1.36633 120.273 1.28134C121.807 1.19635 123.683 1.15277 125.899 1.15277H128.521C129.416 1.15277 130.33 1.19635 131.271 1.28134C132.465 1.36633 133.55 1.87843 134.531 2.81547C135.509 3.75468 136.3 5.07525 136.897 6.77935C137.58 8.48563 137.963 10.2311 138.048 12.0224C138.133 13.8115 137.963 15.9863 137.536 18.5446C137.364 20.5908 136.917 22.9574 136.194 25.6421C135.468 28.3268 134.659 31.0355 133.764 33.7616C132.868 36.4899 132.038 39.1768 131.271 41.818C130.504 44.4613 130.055 46.8061 129.929 48.8523C129.802 50.8985 130.099 52.5394 130.824 53.775C131.548 55.0128 132.934 55.6295 134.98 55.6295C136.002 55.6295 137.067 55.5031 138.177 55.2459C139.201 54.991 140.689 54.5007 142.653 53.775L142.65 53.7728Z" fill="#163527"/>
<path d="M217.202 65.4727C208.42 65.5599 200.577 65.6013 193.673 65.6013C190.773 65.6013 187.896 65.6231 185.042 65.6645C182.185 65.7081 179.65 65.7495 177.434 65.7931C175.216 65.8366 173.427 65.8562 172.063 65.8562H169.89L170.018 0.383532L219.252 0.128571C219.252 0.213558 219.272 0.684255 219.315 1.5363C219.357 2.38835 219.381 3.49754 219.381 4.86169V9.46625C219.381 11.1725 219.335 12.918 219.252 14.7093C219.167 15.9885 218.718 17.0977 217.91 18.0347C217.099 18.9739 216.077 19.741 214.841 20.3359C213.604 20.933 212.327 21.3819 211.006 21.6782C209.683 21.9768 208.467 22.125 207.36 22.125C206.593 22.125 205.783 22.0836 204.931 21.9964C204.079 21.9136 203.142 21.785 202.117 21.6129C200.753 21.3557 199.688 21.1008 198.921 20.8458C198.154 20.5908 197.45 20.3337 196.811 20.0787C196.173 19.8238 195.532 19.5666 194.893 19.3117C194.253 19.0545 193.379 18.7996 192.272 18.5446C191.42 18.3746 190.779 18.2896 190.354 18.2896C189.415 18.2896 188.692 18.5446 188.18 19.0567C187.752 19.4838 187.604 20.0155 187.733 20.6562C187.861 21.2947 188.18 21.8722 188.692 22.3821C190.651 24.5133 193.25 25.9864 196.493 26.7949C199.733 27.6055 203.227 28.0109 206.979 28.0109C208.683 28.0109 210.411 27.9281 212.159 27.7559C213.904 27.5859 215.633 27.4159 217.339 27.2438C217.339 29.9721 217.38 32.5718 217.465 35.0452V46.1698C217.465 47.3639 216.868 48.046 215.676 48.216C214.142 48.4709 212.606 48.5995 211.072 48.5995C207.916 48.5995 205.103 48.0678 202.632 47C200.158 45.9344 198.029 44.592 196.238 42.9729C194.447 41.3538 192.954 39.6061 191.762 37.7299C190.568 35.8558 189.587 34.106 188.82 32.4868C188.563 31.9747 188.18 31.7634 187.67 31.8483C187.073 32.0183 186.774 32.3605 186.774 32.8704V36.9628C186.857 40.8853 188.223 44.2739 190.866 47.1286C193.508 49.9855 196.833 51.585 200.84 51.9227C202.969 52.0949 205.399 52.2649 208.13 52.4348C210.858 52.607 213.926 52.8184 217.337 53.0733L217.208 65.4771L217.202 65.4727Z" fill="#163527"/>
<path d="M222.061 65.8584V0C224.789 0 227.241 0.300723 229.414 0.895633C231.588 1.49272 233.654 2.81329 235.615 4.85952C237.065 6.39364 238.193 8.16311 239.004 10.1658C239.812 12.1706 240.133 14.2364 239.963 16.3676C239.876 20.1201 239.812 24.2322 239.771 28.7082C239.727 33.1842 239.791 37.6384 239.963 42.0708C240.133 46.5053 240.475 50.7896 240.987 54.9234C241.499 59.0595 242.179 62.6594 243.033 65.7277L222.061 65.8562V65.8584Z" fill="#163527"/>
<path d="M264.132 41.1773C263.96 49.6172 264.814 57.8457 266.69 65.8584C262.855 65.8584 259.401 65.817 256.33 65.7299H245.589C245.589 61.7246 245.609 57.3118 245.653 52.4937C245.696 47.6777 245.844 42.84 246.101 37.9805C246.356 33.121 246.784 28.4118 247.381 23.8487C247.976 19.2899 248.852 15.2606 250.002 11.7653C251.153 8.26989 252.624 5.4566 254.415 3.32539C256.206 1.19636 258.379 0.128571 260.937 0.128571H276.411L297 65.7299H294.762C293.354 65.7299 291.692 65.7516 289.774 65.7952C287.856 65.8388 285.83 65.8584 283.701 65.8584H277.948C276.753 65.8584 275.646 65.3703 274.622 64.3875C273.598 63.409 272.746 62.0667 272.064 60.3604C271.38 58.5691 270.933 56.7365 270.722 54.8602C270.508 52.9862 270.53 50.685 270.785 47.9545C270.87 47.2724 270.955 46.3376 271.042 45.1412C271.125 43.947 271.253 42.6286 271.425 41.1773H264.136H264.132ZM271.805 37.8519C272.062 35.8929 272.317 33.8466 272.572 31.7132C272.827 29.5842 273.06 27.5794 273.276 25.7031C273.487 23.8291 273.7 22.1446 273.914 20.6519C274.125 19.1613 274.276 18.0303 274.363 17.2633C274.618 15.1342 274.363 13.6829 273.596 12.9159C273.254 12.6609 272.914 12.5323 272.572 12.5323C271.805 12.5323 271.164 12.9159 270.654 13.6829C268.691 17.1783 267.2 20.9722 266.178 25.0646C265.156 29.1571 264.518 33.4217 264.26 37.8519H271.805Z" fill="#163527"/>
</svg>
